<svg xmlns="http://www.w3.org/2000/svg" xmlns:xlink="http://www.w3.org/1999/xlink" width="500" zoomAndPan="magnify" viewBox="0 0 375 374.999991" height="500" preserveAspectRatio="xMidYMid meet" version="1.2"><defs><clipPath id="cc54545ab4"><path d="M 11.707031 6.6875 L 375 6.6875 L 375 374.9375 L 11.707031 374.9375 Z M 11.707031 6.6875 "/></clipPath><clipPath id="33626b121a"><path d="M 11.707031 6.6875 L 374 6.6875 L 374 368.1875 L 11.707031 368.1875 Z M 11.707031 6.6875 "/></clipPath></defs><g id="73911f69ea"><g clip-rule="nonzero" clip-path="url(#cc54545ab4)"><path style=" stroke:none;fill-rule:nonzero;fill:#ffffff;fill-opacity:1;" d="M 356.558594 239.503906 C 341.007812 224.035156 323.59375 206.6875 307.523438 190.644531 C 307.523438 190.644531 342.742188 155.457031 357.199219 140.910156 C 368.792969 129.25 376.363281 114.675781 379.089844 98.78125 C 381.597656 84.101562 379.871094 68.984375 374.085938 55.070312 C 368.300781 41.164062 358.804688 29.355469 346.617188 20.78125 C 333.4375 11.515625 317.769531 6.6875 301.320312 6.6875 L 90.671875 6.6875 C 47.230469 6.6875 11.882812 41.945312 11.867188 85.382812 L 11.773438 296.132812 C 11.765625 312.605469 16.679688 328.273438 25.976562 341.480469 C 34.566406 353.675781 46.476562 363.164062 60.40625 368.9375 C 70.148438 372.980469 80.46875 375.019531 90.816406 375.019531 C 95.277344 375.019531 99.746094 374.632812 104.164062 373.867188 C 120.078125 371.109375 134.652344 363.5 146.304688 351.847656 L 249.941406 248.359375 C 264.546875 262.972656 280.253906 278.316406 294.671875 292.890625 L 274 292.890625 L 192.597656 374.074219 L 300.957031 374.074219 C 317.449219 374.074219 333.148438 369.195312 346.355469 359.871094 C 358.550781 351.265625 368.046875 339.367188 373.804688 325.402344 C 379.566406 311.445312 381.253906 296.332031 378.675781 281.625 C 375.902344 265.710938 368.25 251.140625 356.558594 239.503906 Z M 93.179688 290.050781 L 93.261719 88.125 L 295.074219 88.125 C 292.507812 90.46875 93.179688 290.050781 93.179688 290.050781 Z M 93.179688 290.050781 "/></g><g clip-rule="nonzero" clip-path="url(#33626b121a)"><path style=" stroke:none;fill-rule:nonzero;fill:#f57704;fill-opacity:1;" d="M 350.289062 235.273438 C 335.023438 220.085938 317.925781 203.054688 302.148438 187.300781 C 302.148438 187.300781 336.726562 152.753906 350.921875 138.472656 C 362.304688 127.023438 369.738281 112.714844 372.410156 97.105469 C 374.875 82.695312 373.179688 67.851562 367.5 54.191406 C 361.820312 40.539062 352.496094 28.945312 340.53125 20.527344 C 327.589844 11.429688 312.207031 6.6875 296.054688 6.6875 L 89.234375 6.6875 C 46.585938 6.6875 11.875 41.304688 11.859375 83.953125 L 11.773438 290.875 C 11.765625 307.046875 16.585938 322.429688 25.714844 335.398438 C 34.152344 347.371094 45.839844 356.6875 59.519531 362.355469 C 69.085938 366.324219 79.214844 368.328125 89.378906 368.328125 C 93.757812 368.328125 98.144531 367.949219 102.484375 367.195312 C 118.109375 364.488281 132.414062 357.015625 143.855469 345.578125 L 245.609375 243.96875 C 259.953125 258.316406 275.375 273.382812 289.527344 287.691406 L 269.234375 287.691406 L 189.308594 367.398438 L 295.699219 367.398438 C 311.890625 367.398438 327.304688 362.609375 340.273438 353.453125 C 352.246094 345.003906 361.570312 333.320312 367.222656 319.609375 C 372.878906 305.910156 374.535156 291.066406 372.007812 276.628906 C 369.285156 261.003906 361.769531 246.699219 350.289062 235.273438 Z M 91.699219 284.902344 L 91.777344 86.644531 L 289.925781 86.644531 C 287.402344 88.945312 91.699219 284.902344 91.699219 284.902344 Z M 91.699219 284.902344 "/></g></g></svg>