<svg xmlns="http://www.w3.org/2000/svg" xmlns:xlink="http://www.w3.org/1999/xlink" width="500" zoomAndPan="magnify" viewBox="0 0 375 374.999991" height="500" preserveAspectRatio="xMidYMid meet" version="1.2"><defs><clipPath id="57837e8817"><path d="M 11.707031 6.6875 L 374 6.6875 L 374 368.1875 L 11.707031 368.1875 Z M 11.707031 6.6875 "/></clipPath></defs><g id="7b67035e95"><g clip-rule="nonzero" clip-path="url(#57837e8817)"><path style=" stroke:none;fill-rule:nonzero;fill:#2b7fff;fill-opacity:1;" d="M 350.289062 235.273438 C 335.023438 220.085938 317.925781 203.054688 302.148438 187.300781 C 302.148438 187.300781 336.726562 152.753906 350.921875 138.472656 C 362.304688 127.023438 369.738281 112.714844 372.410156 97.105469 C 374.875 82.695312 373.179688 67.851562 367.5 54.191406 C 361.820312 40.539062 352.496094 28.945312 340.53125 20.527344 C 327.589844 11.429688 312.207031 6.6875 296.054688 6.6875 L 89.234375 6.6875 C 46.585938 6.6875 11.875 41.304688 11.859375 83.953125 L 11.773438 290.875 C 11.765625 307.046875 16.585938 322.429688 25.714844 335.398438 C 34.152344 347.371094 45.839844 356.6875 59.519531 362.355469 C 69.085938 366.324219 79.214844 368.328125 89.378906 368.328125 C 93.757812 368.328125 98.144531 367.949219 102.484375 367.195312 C 118.109375 364.488281 132.414062 357.015625 143.855469 345.578125 L 245.609375 243.96875 C 259.953125 258.316406 275.375 273.382812 289.527344 287.691406 L 269.234375 287.691406 L 189.308594 367.398438 L 295.699219 367.398438 C 311.890625 367.398438 327.304688 362.609375 340.273438 353.453125 C 352.246094 345.003906 361.570312 333.320312 367.222656 319.609375 C 372.878906 305.910156 374.535156 291.066406 372.007812 276.628906 C 369.285156 261.003906 361.769531 246.699219 350.289062 235.273438 Z M 91.699219 284.902344 L 91.777344 86.644531 L 289.925781 86.644531 C 287.402344 88.945312 91.699219 284.902344 91.699219 284.902344 Z M 91.699219 284.902344 "/></g></g></svg>