<svg xmlns="http://www.w3.org/2000/svg" xmlns:xlink="http://www.w3.org/1999/xlink" width="500" zoomAndPan="magnify" viewBox="0 0 375 374.999991" height="500" preserveAspectRatio="xMidYMid meet" version="1.2"><defs><clipPath id="c7a6073940"><path d="M 24.035156 142.351562 L 108 142.351562 L 108 225.601562 L 24.035156 225.601562 Z M 24.035156 142.351562 "/></clipPath></defs><g id="1cc211644a"><rect x="0" width="375" y="0" height="374.999991" style="fill:#ffffff;fill-opacity:1;stroke:none;"/><rect x="0" width="375" y="0" height="374.999991" style="fill:#ffffff;fill-opacity:1;stroke:none;"/><g style="fill:#81a969;fill-opacity:0.4;"><g transform="translate(112.605276, 222.176397)"><path style="stroke:none" d="M 36.640625 -27.984375 C 39.640625 -24.703125 41.140625 -20.691406 41.140625 -15.953125 C 41.140625 -11.210938 39.640625 -7.210938 36.640625 -3.953125 C 33.648438 -0.691406 29.851562 0.9375 25.25 0.9375 C 21.007812 0.9375 17.515625 -0.578125 14.765625 -3.609375 L 14.640625 -3.609375 L 14.640625 0 L 3.734375 0 L 3.734375 -53.609375 L 14.765625 -53.609375 L 14.765625 -28.921875 C 17.515625 -31.578125 21.007812 -32.90625 25.25 -32.90625 C 29.851562 -32.90625 33.648438 -31.265625 36.640625 -27.984375 Z M 27.359375 -10.5625 C 28.734375 -11.957031 29.421875 -13.753906 29.421875 -15.953125 C 29.421875 -18.160156 28.703125 -19.96875 27.265625 -21.375 C 25.835938 -22.789062 24.0625 -23.5 21.9375 -23.5 C 19.863281 -23.5 18.109375 -22.789062 16.671875 -21.375 C 15.234375 -19.96875 14.515625 -18.160156 14.515625 -15.953125 C 14.515625 -13.796875 15.210938 -12.007812 16.609375 -10.59375 C 18.003906 -9.1875 19.78125 -8.484375 21.9375 -8.484375 C 24.1875 -8.484375 25.992188 -9.175781 27.359375 -10.5625 Z M 27.359375 -10.5625 "/></g></g><g style="fill:#81a969;fill-opacity:0.4;"><g transform="translate(151.866588, 222.176397)"><path style="stroke:none" d="M 14.15625 -31.96875 L 14.15625 -16.765625 C 14.15625 -13.609375 14.628906 -11.363281 15.578125 -10.03125 C 16.535156 -8.707031 18.15625 -8.046875 20.4375 -8.046875 C 22.726562 -8.046875 24.347656 -8.707031 25.296875 -10.03125 C 26.253906 -11.363281 26.734375 -13.609375 26.734375 -16.765625 L 26.734375 -31.96875 L 37.765625 -31.96875 L 37.765625 -14.09375 C 37.765625 -8.769531 36.382812 -4.929688 33.625 -2.578125 C 30.863281 -0.234375 26.46875 0.9375 20.4375 0.9375 C 14.414062 0.9375 10.019531 -0.234375 7.25 -2.578125 C 4.488281 -4.929688 3.109375 -8.769531 3.109375 -14.09375 L 3.109375 -31.96875 Z M 14.15625 -31.96875 "/></g></g><g style="fill:#81a969;fill-opacity:0.4;"><g transform="translate(189.445252, 222.176397)"><path style="stroke:none" d="M 4.796875 -49.796875 C 6.085938 -51.085938 7.625 -51.734375 9.40625 -51.734375 C 11.195312 -51.734375 12.734375 -51.085938 14.015625 -49.796875 C 15.304688 -48.515625 15.953125 -46.976562 15.953125 -45.1875 C 15.953125 -43.394531 15.304688 -41.851562 14.015625 -40.5625 C 12.734375 -39.28125 11.195312 -38.640625 9.40625 -38.640625 C 7.625 -38.640625 6.085938 -39.28125 4.796875 -40.5625 C 3.503906 -41.851562 2.859375 -43.394531 2.859375 -45.1875 C 2.859375 -46.976562 3.503906 -48.515625 4.796875 -49.796875 Z M 3.734375 -31.96875 L 3.734375 0 L 14.765625 0 L 14.765625 -31.96875 Z M 3.734375 -31.96875 "/></g></g><g style="fill:#81a969;fill-opacity:0.4;"><g transform="translate(204.962558, 222.176397)"><path style="stroke:none" d="M 3.734375 0 L 3.734375 -53.609375 L 14.765625 -53.609375 L 14.765625 0 Z M 3.734375 0 "/></g></g><g style="fill:#81a969;fill-opacity:0.4;"><g transform="translate(220.168265, 222.176397)"><path style="stroke:none" d="M 5.921875 -3.953125 C 2.929688 -7.210938 1.4375 -11.210938 1.4375 -15.953125 C 1.4375 -20.691406 2.929688 -24.703125 5.921875 -27.984375 C 8.910156 -31.265625 12.710938 -32.90625 17.328125 -32.90625 C 21.566406 -32.90625 25.054688 -31.578125 27.796875 -28.921875 L 27.796875 -53.609375 L 38.828125 -53.609375 L 38.828125 0 L 27.921875 0 L 27.921875 -3.609375 L 27.796875 -3.609375 C 25.054688 -0.578125 21.566406 0.9375 17.328125 0.9375 C 12.710938 0.9375 8.910156 -0.691406 5.921875 -3.953125 Z M 15.296875 -21.375 C 13.867188 -19.96875 13.15625 -18.160156 13.15625 -15.953125 C 13.15625 -13.753906 13.835938 -11.957031 15.203125 -10.5625 C 16.578125 -9.175781 18.382812 -8.484375 20.625 -8.484375 C 22.789062 -8.484375 24.566406 -9.1875 25.953125 -10.59375 C 27.347656 -12.007812 28.046875 -13.796875 28.046875 -15.953125 C 28.046875 -18.160156 27.328125 -19.96875 25.890625 -21.375 C 24.460938 -22.789062 22.707031 -23.5 20.625 -23.5 C 18.507812 -23.5 16.734375 -22.789062 15.296875 -21.375 Z M 15.296875 -21.375 "/></g></g><g style="fill:#81a969;fill-opacity:0.4;"><g transform="translate(259.429577, 222.176397)"><path style="stroke:none" d="M 4.796875 -49.796875 C 6.085938 -51.085938 7.625 -51.734375 9.40625 -51.734375 C 11.195312 -51.734375 12.734375 -51.085938 14.015625 -49.796875 C 15.304688 -48.515625 15.953125 -46.976562 15.953125 -45.1875 C 15.953125 -43.394531 15.304688 -41.851562 14.015625 -40.5625 C 12.734375 -39.28125 11.195312 -38.640625 9.40625 -38.640625 C 7.625 -38.640625 6.085938 -39.28125 4.796875 -40.5625 C 3.503906 -41.851562 2.859375 -43.394531 2.859375 -45.1875 C 2.859375 -46.976562 3.503906 -48.515625 4.796875 -49.796875 Z M 3.734375 -31.96875 L 3.734375 0 L 14.765625 0 L 14.765625 -31.96875 Z M 3.734375 -31.96875 "/></g></g><g style="fill:#81a969;fill-opacity:0.4;"><g transform="translate(274.946883, 222.176397)"><path style="stroke:none" d="M 27.984375 -31.96875 L 40.703125 -31.96875 L 15.578125 16.203125 L 2.859375 16.203125 L 13.90625 -4.984375 L -1.25 -31.96875 L 11.46875 -31.96875 L 20.375 -15.578125 Z M 27.984375 -31.96875 "/></g></g><g style="fill:#81a969;fill-opacity:0.4;"><g transform="translate(311.092186, 222.176397)"><path style="stroke:none" d="M 6.765625 -3.796875 C 3.210938 -6.953125 1.4375 -11.003906 1.4375 -15.953125 C 1.4375 -20.898438 3.285156 -24.960938 6.984375 -28.140625 C 10.679688 -31.316406 15.25 -32.90625 20.6875 -32.90625 C 26.050781 -32.90625 30.570312 -31.304688 34.25 -28.109375 C 37.925781 -24.910156 39.765625 -20.859375 39.765625 -15.953125 C 39.765625 -11.046875 37.96875 -7.003906 34.375 -3.828125 C 30.78125 -0.648438 26.21875 0.9375 20.6875 0.9375 C 14.957031 0.9375 10.316406 -0.640625 6.765625 -3.796875 Z M 15.296875 -21.375 C 13.867188 -19.96875 13.15625 -18.160156 13.15625 -15.953125 C 13.15625 -13.753906 13.835938 -11.957031 15.203125 -10.5625 C 16.578125 -9.175781 18.382812 -8.484375 20.625 -8.484375 C 22.789062 -8.484375 24.566406 -9.1875 25.953125 -10.59375 C 27.347656 -12.007812 28.046875 -13.796875 28.046875 -15.953125 C 28.046875 -18.160156 27.328125 -19.96875 25.890625 -21.375 C 24.460938 -22.789062 22.707031 -23.5 20.625 -23.5 C 18.507812 -23.5 16.734375 -22.789062 15.296875 -21.375 Z M 15.296875 -21.375 "/></g></g><g style="fill:#231f20;fill-opacity:1;"><g transform="translate(112.605276, 222.176397)"><path style="stroke:none" d="M 36.640625 -27.984375 C 39.640625 -24.703125 41.140625 -20.691406 41.140625 -15.953125 C 41.140625 -11.210938 39.640625 -7.210938 36.640625 -3.953125 C 33.648438 -0.691406 29.851562 0.9375 25.25 0.9375 C 21.007812 0.9375 17.515625 -0.578125 14.765625 -3.609375 L 14.640625 -3.609375 L 14.640625 0 L 3.734375 0 L 3.734375 -53.609375 L 14.765625 -53.609375 L 14.765625 -28.921875 C 17.515625 -31.578125 21.007812 -32.90625 25.25 -32.90625 C 29.851562 -32.90625 33.648438 -31.265625 36.640625 -27.984375 Z M 27.359375 -10.5625 C 28.734375 -11.957031 29.421875 -13.753906 29.421875 -15.953125 C 29.421875 -18.160156 28.703125 -19.96875 27.265625 -21.375 C 25.835938 -22.789062 24.0625 -23.5 21.9375 -23.5 C 19.863281 -23.5 18.109375 -22.789062 16.671875 -21.375 C 15.234375 -19.96875 14.515625 -18.160156 14.515625 -15.953125 C 14.515625 -13.796875 15.210938 -12.007812 16.609375 -10.59375 C 18.003906 -9.1875 19.78125 -8.484375 21.9375 -8.484375 C 24.1875 -8.484375 25.992188 -9.175781 27.359375 -10.5625 Z M 27.359375 -10.5625 "/></g></g><g style="fill:#231f20;fill-opacity:1;"><g transform="translate(151.866588, 222.176397)"><path style="stroke:none" d="M 14.15625 -31.96875 L 14.15625 -16.765625 C 14.15625 -13.609375 14.628906 -11.363281 15.578125 -10.03125 C 16.535156 -8.707031 18.15625 -8.046875 20.4375 -8.046875 C 22.726562 -8.046875 24.347656 -8.707031 25.296875 -10.03125 C 26.253906 -11.363281 26.734375 -13.609375 26.734375 -16.765625 L 26.734375 -31.96875 L 37.765625 -31.96875 L 37.765625 -14.09375 C 37.765625 -8.769531 36.382812 -4.929688 33.625 -2.578125 C 30.863281 -0.234375 26.46875 0.9375 20.4375 0.9375 C 14.414062 0.9375 10.019531 -0.234375 7.25 -2.578125 C 4.488281 -4.929688 3.109375 -8.769531 3.109375 -14.09375 L 3.109375 -31.96875 Z M 14.15625 -31.96875 "/></g></g><g style="fill:#231f20;fill-opacity:1;"><g transform="translate(189.445252, 222.176397)"><path style="stroke:none" d="M 4.796875 -49.796875 C 6.085938 -51.085938 7.625 -51.734375 9.40625 -51.734375 C 11.195312 -51.734375 12.734375 -51.085938 14.015625 -49.796875 C 15.304688 -48.515625 15.953125 -46.976562 15.953125 -45.1875 C 15.953125 -43.394531 15.304688 -41.851562 14.015625 -40.5625 C 12.734375 -39.28125 11.195312 -38.640625 9.40625 -38.640625 C 7.625 -38.640625 6.085938 -39.28125 4.796875 -40.5625 C 3.503906 -41.851562 2.859375 -43.394531 2.859375 -45.1875 C 2.859375 -46.976562 3.503906 -48.515625 4.796875 -49.796875 Z M 3.734375 -31.96875 L 3.734375 0 L 14.765625 0 L 14.765625 -31.96875 Z M 3.734375 -31.96875 "/></g></g><g style="fill:#231f20;fill-opacity:1;"><g transform="translate(204.962558, 222.176397)"><path style="stroke:none" d="M 3.734375 0 L 3.734375 -53.609375 L 14.765625 -53.609375 L 14.765625 0 Z M 3.734375 0 "/></g></g><g style="fill:#231f20;fill-opacity:1;"><g transform="translate(220.168265, 222.176397)"><path style="stroke:none" d="M 5.921875 -3.953125 C 2.929688 -7.210938 1.4375 -11.210938 1.4375 -15.953125 C 1.4375 -20.691406 2.929688 -24.703125 5.921875 -27.984375 C 8.910156 -31.265625 12.710938 -32.90625 17.328125 -32.90625 C 21.566406 -32.90625 25.054688 -31.578125 27.796875 -28.921875 L 27.796875 -53.609375 L 38.828125 -53.609375 L 38.828125 0 L 27.921875 0 L 27.921875 -3.609375 L 27.796875 -3.609375 C 25.054688 -0.578125 21.566406 0.9375 17.328125 0.9375 C 12.710938 0.9375 8.910156 -0.691406 5.921875 -3.953125 Z M 15.296875 -21.375 C 13.867188 -19.96875 13.15625 -18.160156 13.15625 -15.953125 C 13.15625 -13.753906 13.835938 -11.957031 15.203125 -10.5625 C 16.578125 -9.175781 18.382812 -8.484375 20.625 -8.484375 C 22.789062 -8.484375 24.566406 -9.1875 25.953125 -10.59375 C 27.347656 -12.007812 28.046875 -13.796875 28.046875 -15.953125 C 28.046875 -18.160156 27.328125 -19.96875 25.890625 -21.375 C 24.460938 -22.789062 22.707031 -23.5 20.625 -23.5 C 18.507812 -23.5 16.734375 -22.789062 15.296875 -21.375 Z M 15.296875 -21.375 "/></g></g><g style="fill:#231f20;fill-opacity:1;"><g transform="translate(259.429577, 222.176397)"><path style="stroke:none" d="M 4.796875 -49.796875 C 6.085938 -51.085938 7.625 -51.734375 9.40625 -51.734375 C 11.195312 -51.734375 12.734375 -51.085938 14.015625 -49.796875 C 15.304688 -48.515625 15.953125 -46.976562 15.953125 -45.1875 C 15.953125 -43.394531 15.304688 -41.851562 14.015625 -40.5625 C 12.734375 -39.28125 11.195312 -38.640625 9.40625 -38.640625 C 7.625 -38.640625 6.085938 -39.28125 4.796875 -40.5625 C 3.503906 -41.851562 2.859375 -43.394531 2.859375 -45.1875 C 2.859375 -46.976562 3.503906 -48.515625 4.796875 -49.796875 Z M 3.734375 -31.96875 L 3.734375 0 L 14.765625 0 L 14.765625 -31.96875 Z M 3.734375 -31.96875 "/></g></g><g style="fill:#231f20;fill-opacity:1;"><g transform="translate(274.946883, 222.176397)"><path style="stroke:none" d="M 27.984375 -31.96875 L 40.703125 -31.96875 L 15.578125 16.203125 L 2.859375 16.203125 L 13.90625 -4.984375 L -1.25 -31.96875 L 11.46875 -31.96875 L 20.375 -15.578125 Z M 27.984375 -31.96875 "/></g></g><g style="fill:#231f20;fill-opacity:1;"><g transform="translate(311.092186, 222.176397)"><path style="stroke:none" d="M 6.765625 -3.796875 C 3.210938 -6.953125 1.4375 -11.003906 1.4375 -15.953125 C 1.4375 -20.898438 3.285156 -24.960938 6.984375 -28.140625 C 10.679688 -31.316406 15.25 -32.90625 20.6875 -32.90625 C 26.050781 -32.90625 30.570312 -31.304688 34.25 -28.109375 C 37.925781 -24.910156 39.765625 -20.859375 39.765625 -15.953125 C 39.765625 -11.046875 37.96875 -7.003906 34.375 -3.828125 C 30.78125 -0.648438 26.21875 0.9375 20.6875 0.9375 C 14.957031 0.9375 10.316406 -0.640625 6.765625 -3.796875 Z M 15.296875 -21.375 C 13.867188 -19.96875 13.15625 -18.160156 13.15625 -15.953125 C 13.15625 -13.753906 13.835938 -11.957031 15.203125 -10.5625 C 16.578125 -9.175781 18.382812 -8.484375 20.625 -8.484375 C 22.789062 -8.484375 24.566406 -9.1875 25.953125 -10.59375 C 27.347656 -12.007812 28.046875 -13.796875 28.046875 -15.953125 C 28.046875 -18.160156 27.328125 -19.96875 25.890625 -21.375 C 24.460938 -22.789062 22.707031 -23.5 20.625 -23.5 C 18.507812 -23.5 16.734375 -22.789062 15.296875 -21.375 Z M 15.296875 -21.375 "/></g></g><g clip-rule="nonzero" clip-path="url(#c7a6073940)"><path style=" stroke:none;fill-rule:nonzero;fill:#2b7fff;fill-opacity:1;" d="M 102.183594 195.109375 C 98.660156 191.605469 94.714844 187.671875 91.070312 184.039062 C 91.070312 184.039062 99.050781 176.0625 102.328125 172.769531 C 104.957031 170.125 106.671875 166.824219 107.289062 163.21875 C 107.855469 159.894531 107.464844 156.46875 106.15625 153.316406 C 104.84375 150.164062 102.691406 147.488281 99.929688 145.546875 C 96.941406 143.445312 93.394531 142.351562 89.664062 142.351562 L 41.929688 142.351562 C 32.085938 142.351562 24.078125 150.339844 24.074219 160.183594 L 24.054688 207.941406 C 24.050781 211.675781 25.164062 215.226562 27.269531 218.21875 C 29.21875 220.980469 31.917969 223.132812 35.074219 224.441406 C 37.28125 225.355469 39.617188 225.816406 41.964844 225.816406 C 42.976562 225.816406 43.988281 225.730469 44.988281 225.558594 C 48.59375 224.933594 51.898438 223.207031 54.539062 220.566406 L 78.023438 197.117188 C 81.332031 200.425781 84.890625 203.90625 88.160156 207.207031 L 83.476562 207.207031 L 65.027344 225.605469 L 89.582031 225.605469 C 93.320312 225.605469 96.878906 224.5 99.871094 222.386719 C 102.632812 220.433594 104.785156 217.738281 106.089844 214.574219 C 107.394531 211.410156 107.777344 207.988281 107.195312 204.65625 C 106.566406 201.046875 104.832031 197.746094 102.183594 195.109375 Z M 42.5 206.5625 L 42.519531 160.804688 L 88.25 160.804688 C 87.667969 161.335938 42.5 206.5625 42.5 206.5625 Z M 42.5 206.5625 "/></g></g></svg>