<svg width="120" height="24" viewBox="0 0 120 24" fill="none" xmlns="http://www.w3.org/2000/svg">
  <!-- Logo icon -->
  <g>
    <!-- Orange left curves -->
    <path d="M2 12C2 6.48 6.48 2 12 2C12 7.52 7.52 12 2 12Z" fill="#FF6B35"/>
    <path d="M4 12C4 7.58 7.58 4 12 4C12 8.42 8.42 12 4 12Z" fill="#FF8C42"/>
    
    <!-- Light right curves for dark mode -->
    <path d="M22 12C22 17.52 17.52 22 12 22C12 16.48 16.48 12 22 12Z" fill="#F8F9FA"/>
    <path d="M20 12C20 16.42 16.42 20 12 20C12 15.58 15.58 12 20 12Z" fill="#E9ECEF"/>
    
    <!-- Center circle -->
    <circle cx="12" cy="12" r="2" fill="#F8F9FA"/>
  </g>
  
  <!-- Text "Buildiyo" for dark mode -->
  <text x="32" y="16" font-family="Arial, sans-serif" font-size="14" font-weight="600" fill="#F8F9FA">Buildiyo</text>
</svg>
