<svg width="42" height="42" viewBox="0 0 42 42" fill="none" xmlns="http://www.w3.org/2000/svg">
  <!-- Background circle for dark mode -->
  <circle cx="21" cy="21" r="21" fill="#1A1A1A"/>
  
  <!-- Orange left curves -->
  <path d="M3.5 21C3.5 11.34 11.34 3.5 21 3.5C21 13.16 13.16 21 3.5 21Z" fill="#FF6B35"/>
  <path d="M7 21C7 13.27 13.27 7 21 7C21 14.73 14.73 21 7 21Z" fill="#FF8C42"/>
  
  <!-- Light right curves for dark mode -->
  <path d="M38.5 21C38.5 30.66 30.66 38.5 21 38.5C21 28.84 28.84 21 38.5 21Z" fill="#F8F9FA"/>
  <path d="M35 21C35 28.73 28.73 35 21 35C21 27.27 27.27 21 35 21Z" fill="#E9ECEF"/>
  
  <!-- Center circle -->
  <circle cx="21" cy="21" r="3.5" fill="#F8F9FA"/>
</svg>